<?xml version="1.0" encoding="UTF-8" standalone="no"?>
<!-- Created with Inkscape (http://www.inkscape.org/) -->

<svg
   xmlns:dc="http://purl.org/dc/elements/1.1/"
   xmlns:cc="http://creativecommons.org/ns#"
   xmlns:rdf="http://www.w3.org/1999/02/22-rdf-syntax-ns#"
   xmlns:svg="http://www.w3.org/2000/svg"
   xmlns="http://www.w3.org/2000/svg"
   xmlns:inkscape="http://www.inkscape.org/namespaces/inkscape"
   version="1.0"
   width="1200"
   height="700"
   viewBox="0 0 852 768"
   id="svg2"
   xml:space="preserve"
   style="fill-rule:evenodd"><metadata
     id="metadata68"><rdf:RDF><cc:Work
         rdf:about=""><dc:format>image/svg+xml</dc:format><dc:type
           rdf:resource="http://purl.org/dc/dcmitype/StillImage" /></cc:Work></rdf:RDF></metadata><defs
     id="defs4"><style
       type="text/css"
       id="style6" /></defs><path
     d="m -37.977131,286.58862 c 2.19429,-9.87432 36.5767118,-40.82933 34.3824218,-29.8579 43.0428182,44.31526 102.0124682,82.32615 127.1559292,87.58382 31.96049,3.134 54.99948,-6.7332 61.58233,-11.1217 125.23165,-79.8091 234.58489,-170.38591 355.27061,-228.53448 76.8,-30.720004 155.79427,-37.302864 238.07997,-7.680004 -6.5828,18.651434 -12.0685,38.400004 -17.5542,57.051434 -74.6058,-23.04 -140.43434,-20.84571 -200.7772,6.58286 -105.32572,51.56571 -192,121.78284 -281.96572,187.61144 -12.06857,10.9714 -1.09715,18.6514 12.06857,24.1371 116.29715,46.08 243.56572,166.7658 365.34855,213.9429 32.9143,25.2343 65.8286,50.4686 99.84,75.7029 -84.48,1.0971 -181.02854,-31.8172 -292.93712,-114.1029 -102.03429,-76.8 -194.20987,-135.183 -262.98152,-136.0626 -12.63859,-0.1617 -23.10268,-0.55205 -33.1508,1.99065 1.14876,14.4155 13.84339,82.8051 18.57726,94.8751 l -21.62512,6.0017 c -10.42411,-22.8955 -12.58109,-78.1998 -21.42578,-97.6207 l -35.00223,0.7932 c 2.19429,9.8743 17.4666,85.1712 17.1842,103.3979 l -21.55755,-0.6318 c -6.001771,-15.7797 -16.371681,-78.0504 -22.373441,-103.6224 l -30.78741,11.13629 c -4.59165,1.66087 -38.725434,13.51324 -70.854218,33.95369 -8.599037,-7.7349 -22.753768,-24.67505 -31.081893,-35.8396 25.261281,-16.1235 139.823631,-45.16037 133.640691,-49.80687 -42.07574,-27.8401 -78.8612762,-49.41096 -119.05633,-89.88003 z"
     inkscape:connector-curvature="0"
     id="path3249"
     style="fill:#f5ffff;fill-rule:evenodd;stroke:#000000;stroke-width:3.2914288" /><circle
     cx="316"
     cy="166"
     r="66"
     transform="matrix(1.0971429,0,0,1.0971429,89.488419,20.178346)"
     id="circle3251"
     style="fill:#f5ffff;fill-rule:evenodd;stroke:#000000;stroke-width:3" /><path
     d="m 361.57987,215.46979 c 38.4,-27.42857 78.99429,-55.95428 120.68572,-77.89714 l 34.01143,43.88571 c -42.78858,26.33143 -91.06286,55.95429 -133.85144,87.77143 l -20.84571,-53.76 z"
     inkscape:connector-curvature="0"
     id="path3253"
     style="fill:#f5ffff;fill-rule:evenodd" /><path
     d="m -44.033257,238.87516 c 44.01545178,47.61776 99.549736,91.4782 142.498196,110.55708 34.968771,15.53408 84.315391,9.93593 114.718261,-11.77215 C 412.69162,195.20827 613.92273,51.995496 762.03703,114.53265"
     inkscape:connector-curvature="0"
     id="path3255"
     style="fill:none;stroke:#0000ff;stroke-width:2.74285722;stroke-miterlimit:4;stroke-dasharray:none" /><path
     d="M -53.673875,441.92153 C 1.8805018,410.76936 42.763059,398.33418 90.206199,381.4628 142.4597,362.88078 176.93115,384.06874 225.53415,350.41839 437.28273,191.33265 650.12845,58.578356 763.13413,134.28122"
     inkscape:connector-curvature="0"
     id="path3257"
     style="fill:none;stroke:#0000ff;stroke-width:2.74285722;stroke-miterlimit:4;stroke-dasharray:none" /><path
     d="M 680.84843,601.66409 C 642.44845,655.42409 348.32061,393.69525 243.52816,379.35144 180.54702,370.73069 122.95265,383.52816 84.410289,364.86784 38.719349,342.74653 -13.071896,300.17652 -56.482363,247.27737"
     inkscape:connector-curvature="0"
     id="path3259"
     style="fill:none;stroke:#ff0000;stroke-width:2.74285722;stroke-miterlimit:4;stroke-dasharray:none" /><path
     d="M 697.30563,613.73269 C 652.32274,693.82409 345.45375,408.80455 235.00105,397.31319 192.62984,392.90494 128.34323,379.90773 86.659499,396.01414 21.171473,421.31843 -8.5354732,434.3823 -37.934739,456.42468"
     inkscape:connector-curvature="0"
     id="path3261"
     style="fill:none;stroke:#ff0000;stroke-width:2.74285722;stroke-miterlimit:4;stroke-dasharray:none" /><path
     d="m 1053.877,633.48119 c -23.04,5.4858 -46.08,-15.36 -68.02282,-47.1771 -51.5658,154.6972 -376.32002,96.5486 -374.12573,-73.5086 8.77714,-223.8171 51.56568,-387.29141 167.86288,-423.497134 161.27995,-29.62286 215.03995,74.605724 204.06855,266.605734 -7.68,-162.37715 20.84572,-241.37144 75.70282,-236.98287 -2.1942,172.25147 -3.2914,343.40577 -5.4857,514.55997 z"
     inkscape:connector-curvature="0"
     id="path3263"
     style="fill:#ebebeb;fill-rule:evenodd;stroke:#000000;stroke-width:3.2914288" /><path
     d="m 1053.8447,377.36084 c -133.85151,20.8458 -186.54665,-78.7119 -196.42085,-216.95188 -1.0972,-39.49714 -141.5315,-46.08 -113.0058,5.48571 54.8572,73.50857 35.1086,143.72577 -18.6514,210.65147 -77.8971,107.52 -30.72,240.2743 64.7314,220.5257 74.6058,-3.2914 131.65715,-32.9143 185.41713,-111.9086 18.6514,-19.7486 55.13952,-3.6988 77.08242,6.1755 l 0.8471,-113.9779 z"
     inkscape:connector-curvature="0"
     id="path3265"
     style="fill:#bdc9a7;fill-rule:evenodd" /><text
     x="-96.32106"
     y="166.57477"
     id="text3267"
     style="font-size:38.40000153px;font-style:normal;font-variant:normal;font-weight:normal;font-stretch:normal;text-align:start;line-height:125%;writing-mode:lr-tb;text-anchor:start;fill:#000000;fill-rule:evenodd;font-family:Arial"><tspan
       x="-96.32106"
       y="166.57477"
       id="tspan3269">dorsal</tspan><tspan
       x="-96.32106"
       y="214.57477"
       id="tspan3271">ramus</tspan></text>
<text
     x="567.84277"
     y="59.675461"
     id="text2198"
     style="font-size:38.40000153px;font-weight:normal;fill:#0000ff;fill-rule:evenodd;font-family:Arial">dorsal root</text>
<text
     x="567.84277"
     y="703.69836"
     id="text3275"
     style="font-size:38.40000153px;font-style:normal;font-variant:normal;font-weight:normal;font-stretch:normal;text-align:start;line-height:125%;writing-mode:lr-tb;text-anchor:start;fill:#ff0000;fill-rule:evenodd;font-family:Arial"><tspan
       x="567.84277"
       y="703.69836"
       id="tspan2204">ventral root</tspan></text>
<text
     x="-180.05016"
     y="470.25323"
     id="text3277"
     style="font-size:38.40000153px;font-style:normal;font-variant:normal;font-weight:normal;font-stretch:normal;text-align:start;line-height:125%;writing-mode:lr-tb;text-anchor:start;fill:#000000;fill-rule:evenodd;font-family:Arial"><tspan
       x="-180.05016"
       y="470.25323"
       id="tspan3279">ventral</tspan><tspan
       x="-180.05016"
       y="518.25323"
       id="tspan3281">ramus</tspan></text>
<text
     x="175.09734"
     y="145.86253"
     id="text3283"
     style="font-size:38.40000153px;font-style:normal;font-variant:normal;font-weight:normal;font-stretch:normal;text-align:start;line-height:125%;writing-mode:lr-tb;text-anchor:start;fill:#000000;fill-rule:evenodd;font-family:Arial"><tspan
       x="175.09734"
       y="145.86253"
       id="tspan3285">spinal</tspan><tspan
       x="175.09734"
       y="193.86253"
       id="tspan3287">nerve</tspan></text>
<path
     d="m 188.56557,326.85948 3.21887,-127.04465"
     inkscape:connector-curvature="0"
     id="path3289"
     style="fill:none;stroke:#000000;stroke-width:3.2914288" /><text
     x="201.5694"
     y="560.53839"
     id="text3291"
     style="font-size:38.40000153px;font-weight:normal;fill:#000000;fill-rule:evenodd;font-family:Arial">gray ramus</text>
<text
     x="-32.514389"
     y="613.25208"
     id="text3293"
     style="font-size:38.40000153px;font-weight:normal;fill:#000000;fill-rule:evenodd;font-family:Arial">white ramus</text>
<path
     d="m 430.69987,191.33265 c 4.38857,-6.58286 1.09714,-20.84572 -4.38857,-27.42857"
     inkscape:connector-curvature="0"
     id="path3295"
     style="fill:none;stroke:#0000ff;stroke-width:2.19428563;stroke-miterlimit:4;stroke-dasharray:none" /><circle
     cx="308"
     cy="132"
     r="4"
     transform="matrix(1.0971429,0,0,1.0971429,89.488419,20.178346)"
     id="circle3297"
     style="fill:#0000ff;fill-rule:evenodd" /><path
     d="m 437.28273,205.59551 c -4.38857,5.48571 -2.19429,20.84571 3.29143,27.42857"
     inkscape:connector-curvature="0"
     id="path3299"
     style="fill:none;stroke:#0000ff;stroke-width:2.19428563;stroke-miterlimit:4;stroke-dasharray:none" /><circle
     cx="320"
     cy="193"
     r="4"
     transform="matrix(1.0971429,0,0,1.0971429,89.488419,20.178346)"
     id="circle3301"
     style="fill:#0000ff;fill-rule:evenodd" /><text
     x="815.79706"
     y="426.12122"
     id="text3303"
     style="font-size:38.40000153px;font-weight:normal;fill:#000000;fill-rule:evenodd;font-family:Arial">grey</text>
<text
     x="815.79706"
     y="470.00696"
     id="text3305"
     style="font-size:38.40000153px;font-weight:normal;fill:#000000;fill-rule:evenodd;font-family:Arial">matter</text>
<text
     x="656.27167"
     y="261.70718"
     id="text3307"
     style="font-size:38.40000153px;font-weight:normal;fill:#000000;fill-rule:evenodd;font-family:Arial">white</text>
<text
     x="656.27167"
     y="305.59283"
     id="text3309"
     style="font-size:38.40000153px;font-weight:normal;fill:#000000;fill-rule:evenodd;font-family:Arial">matter</text>
<path
     d="m 172.57924,475.92044 92.91876,51.8201"
     inkscape:connector-curvature="0"
     id="path3311"
     style="color:#000000;fill:none;stroke:#000000;stroke-width:3.2914288;stroke-linecap:butt;stroke-linejoin:miter;stroke-miterlimit:4;stroke-opacity:1;stroke-dasharray:none;stroke-dashoffset:0;marker:none;visibility:visible;display:inline;overflow:visible" /><path
     d="m 97.529469,477.70734 -25.01658,109.0009"
     inkscape:connector-curvature="0"
     id="path3313"
     style="color:#000000;fill:none;stroke:#000000;stroke-width:3.2914288;stroke-linecap:butt;stroke-linejoin:miter;stroke-miterlimit:4;stroke-opacity:1;stroke-dasharray:none;stroke-dashoffset:0;marker:none;visibility:visible;display:inline;overflow:visible" /></svg>