<?xml version="1.0" encoding="UTF-8" standalone="no"?>
<!-- Created with Inkscape (http://www.inkscape.org/) -->

<svg
   width="199.3584mm"
   height="73.453705mm"
   viewBox="0 0 199.3584 73.453705"
   version="1.1"
   id="svg1"
   xml:space="preserve"
   xmlns="http://www.w3.org/2000/svg"
   xmlns:svg="http://www.w3.org/2000/svg"><defs
     id="defs1"><clipPath
       clipPathUnits="userSpaceOnUse"
       id="clipPath12"><path
         id="path12"
         style="fill:#ff0000;fill-opacity:1;fill-rule:nonzero;stroke:none;stroke-width:0.264583"
         d="M 16.023311,83.244531 V 163.4479 H 219.70907 V 83.244531 Z m 43.204084,6.107639 c 0.06942,-0.0016 0.139329,1.93e-4 0.209288,0.0052 0.224213,0.0068 0.448516,0.01638 0.671793,0.03876 0.259394,0.02892 0.518088,0.06792 0.772046,0.129193 0.285591,0.08181 0.601937,0.06662 0.8754,0.202055 0.407776,0.157048 0.792906,0.359113 1.145149,0.619598 0.447161,0.32371 0.868457,0.682371 1.230415,1.101225 0.434393,0.505182 0.823579,1.045125 1.185458,1.604555 0.437719,0.700569 0.826077,1.434177 1.092957,2.218468 0.28076,0.835004 0.500306,1.689857 0.636137,2.561085 0.137123,0.914831 0.207487,1.837639 0.342615,2.752801 0.13858,0.97024 0.284702,1.93938 0.428397,2.90887 0.158123,1.0779 0.329888,2.15736 0.381889,3.24682 0.03037,0.86977 0.01469,1.74062 -0.03359,2.60966 -0.06354,0.77124 -0.182427,1.52561 -0.802537,2.06448 -0.20565,0.10751 -0.402071,0.23496 -0.617016,0.32246 -0.101597,0.0413 -0.214275,0.0498 -0.323493,0.0599 -0.491582,0.0456 -0.974759,-0.0505 -1.435055,-0.21962 -0.82042,-0.29668 -1.624539,-0.64872 -2.355413,-1.13017 -0.760804,-0.51066 -1.471761,-1.08661 -2.122866,-1.73271 -0.446543,-0.44683 -0.873781,-0.91411 -1.283644,-1.39474 -0.259821,-0.34985 -0.488136,-0.71941 -0.70125,-1.09968 -0.209216,-0.39557 -0.387265,-0.80603 -0.561721,-1.21801 -0.250084,-0.59786 -0.475432,-1.20768 -0.533302,-1.85932 -0.110558,-0.99812 -0.127214,-2.00276 -0.08733,-3.00602 0.04603,-1.565251 0.103899,-3.130849 0.234611,-4.691695 0.07823,-0.885139 0.184732,-1.766702 0.294039,-2.647902 -0.335118,-0.338664 -0.543657,-0.934598 -0.449069,-1.771468 0.0046,-0.04026 0.0095,-0.08033 0.0155,-0.120406 0.03287,-0.211 0.08321,-0.420526 0.183967,-0.610815 0.217556,-0.396631 0.544756,-0.717737 0.991672,-0.841293 0.201147,-0.06157 0.40667,-0.09629 0.61495,-0.101285 z m 1.358056,2.797763 c -0.0021,0.112617 -0.008,0.22892 -0.02273,0.352433 -0.125844,1.0572 -0.263927,2.112671 -0.356569,3.173965 -0.125838,1.509789 -0.181414,3.024222 -0.225824,4.538229 -0.03025,0.87723 -0.0316,1.75768 0.07131,2.63033 0.03035,0.40349 0.191021,0.77018 0.345199,1.13791 0.150987,0.32534 0.269632,0.66962 0.448551,0.98134 0.163616,0.24029 0.273717,0.52544 0.469223,0.74258 0.344821,0.3833 0.685196,0.77292 1.053682,1.13379 0.532696,0.51966 1.100039,1.00072 1.723408,1.40766 0.453266,0.29431 0.94447,0.52286 1.447975,0.71727 0.03148,-0.70795 0.05089,-1.41739 0.0217,-2.12545 -0.05208,-0.99406 -0.211693,-1.97873 -0.35605,-2.96261 -0.144246,-0.97277 -0.290338,-1.94568 -0.429432,-2.9192 -0.140438,-0.90656 -0.19957,-1.82311 -0.339513,-2.729548 -0.116941,-0.715127 -0.2876,-1.422189 -0.525034,-2.106848 -0.203915,-0.586555 -0.493107,-1.139135 -0.826823,-1.661399 -0.294947,-0.44111 -0.592183,-0.882327 -0.944645,-1.280025 -0.228613,-0.261561 -0.492567,-0.48837 -0.776181,-0.687813 -0.166214,-0.116703 -0.33463,-0.228486 -0.528648,-0.291455 -0.08152,-0.02275 -0.165431,-0.03772 -0.249598,-0.05116 z m 5.571236,17.014467 c -0.0051,0.002 -0.0099,0.004 -0.01498,0.006 0.07761,0.0193 0.147609,0.0328 0.156062,0.0145 0.0011,-0.002 -0.119626,-0.0272 -0.141076,-0.0202 z" /></clipPath></defs><g
     id="layer1"
     transform="translate(-5.1887484,-168.80695)"><path
       id="path8-9"
       style="fill:#000000"
       d="m 156.64184,184.4839 c -2.512,-0.024 -4.8885,-0.0173 -6.79183,0.0258 -2.53778,0.0575 -4.23428,0.17997 -4.28811,0.38086 -0.12741,0.47506 -0.12168,53.76497 0.005,53.89232 0.0561,0.0562 3.22463,0.1018 7.04091,0.1018 6.93903,0 6.93866,5e-5 6.94066,-10.52287 0.003,-12.67049 -0.30645,-11.29115 2.52801,-11.28045 3.77604,0.0143 5.15885,0.78288 5.58726,3.1042 0.10361,0.56142 0.26297,1.15817 0.35347,1.32654 0.10637,0.19782 0.19516,2.71583 0.25166,7.11739 0.0616,4.79543 0.14073,6.90656 0.26769,7.13342 0.0992,0.17722 0.25481,0.78779 0.34571,1.3565 0.30683,1.92068 -0.4347,1.76311 8.1132,1.72341 8.27986,-0.0385 8.16099,-0.0179 6.81716,-1.19786 -1.36361,-1.19727 -1.60976,-2.76261 -1.62006,-10.3048 -0.0144,-10.50764 -1.42945,-13.51923 -6.99544,-14.88539 -1.09217,-0.26807 -1.2297,-0.5491 -0.38292,-0.78342 0.79271,-0.21936 2.18059,-0.82071 2.63601,-1.14205 0.20815,-0.14687 0.46296,-0.26716 0.56638,-0.26716 0.95924,0 3.29073,-3.5816 4.03541,-6.19911 0.84989,-2.98725 0.49223,-9.6897 -0.63459,-11.8923 -0.15927,-0.31128 -0.28938,-0.64128 -0.28938,-0.73328 0,-0.092 -0.12696,-0.35379 -0.28216,-0.58188 -0.15519,-0.2281 -0.48241,-0.72066 -0.72709,-1.09451 -0.56181,-0.85839 -2.11491,-2.39061 -2.81739,-2.77967 -0.29464,-0.16318 -0.88326,-0.49343 -1.30794,-0.73381 -0.42465,-0.24038 -1.00982,-0.48805 -1.30069,-0.55035 -0.29088,-0.0623 -0.70111,-0.20835 -0.91157,-0.32453 -0.84874,-0.46856 -9.60344,-0.81681 -17.13953,-0.88883 z m 41.583,0.016 c -3.13054,-0.0287 -6.32801,0.0577 -6.65438,0.28628 -0.36984,0.25904 -0.55481,17.74793 -0.19482,18.42058 0.0799,0.14938 0.21958,2.15997 0.31058,4.46743 0.091,2.30746 0.22797,4.40195 0.30437,4.6545 0.0764,0.25255 0.21458,1.83653 0.30748,3.5202 0.23613,4.28131 0.43728,6.43483 0.64233,6.88485 0.17576,0.38577 0.17571,0.3855 4.90461,0.3855 5.76433,0 5.22924,0.50753 5.47667,-5.19399 0.0927,-2.13671 0.23163,-4.00293 0.30903,-4.14756 0.0774,-0.14463 0.21297,-1.91232 0.30127,-3.92792 0.0883,-2.0156 0.24143,-3.90108 0.34003,-4.18993 0.18956,-0.55564 0.38228,-20.04962 0.20516,-20.75532 -0.0583,-0.23212 -3.12183,-0.3759 -6.25233,-0.40462 z m -141.511273,0.0377 c -5.899887,-0.0257 -11.565161,0.0718 -11.808065,0.31471 -0.310821,0.31083 -0.514644,53.62211 -0.206189,53.93056 0.05612,0.0562 3.224603,0.1018 7.040914,0.1018 6.938747,0 6.939111,5e-5 6.939111,-9.93893 0,-12.22108 -0.676925,-10.65227 4.647262,-10.77505 3.144842,-0.0725 4.552256,-0.16237 5.02605,-0.31988 0.361931,-0.12033 1.071546,-0.26451 1.576648,-0.32091 0.505098,-0.0564 1.159015,-0.22349 1.453658,-0.37104 0.294643,-0.14754 0.787277,-0.31487 1.094507,-0.37207 0.307225,-0.0572 0.642741,-0.20564 0.745691,-0.32969 0.102947,-0.12404 0.30323,-0.22531 0.444934,-0.22531 0.141704,0 0.490919,-0.17246 0.77618,-0.38292 0.285258,-0.21046 0.58003,-0.38241 0.65474,-0.38241 0.391824,0 3.477976,-2.92326 3.797701,-3.5972 0.07988,-0.16837 0.351081,-0.63819 0.603064,-1.04386 0.526378,-0.84743 0.99609,-2.07362 1.300179,-3.39462 0.11627,-0.5051 0.323708,-1.36639 0.460954,-1.91358 0.34319,-1.36829 0.260458,-8.04461 -0.110071,-8.8775 -0.13108,-0.29464 -0.284721,-0.90333 -0.341581,-1.35289 -0.05686,-0.44956 -0.238099,-1.06878 -0.40256,-1.37562 -0.164456,-0.30685 -0.299206,-0.63507 -0.299206,-0.72967 0,-1.16794 -3.30787,-5.25548 -5.001762,-6.18051 -0.321511,-0.17558 -0.894484,-0.49382 -1.273307,-0.70693 -1.016026,-0.57158 -2.184192,-0.97071 -3.903121,-1.33325 -1.181066,-0.2491 -7.315844,-0.39756 -13.215731,-0.42323 z m 37.134684,0.0222 c -0.986943,-0.006 -2.345433,0.0134 -4.218864,0.0248 -6.947525,0.0424 -7.488785,0.24237 -6.410978,2.36782 0.119128,0.23492 0.263744,0.94372 0.321944,1.5751 0.0582,0.63138 0.232783,1.69899 0.387574,2.37246 0.154787,0.67347 0.323717,1.73034 0.375687,2.3487 0.05197,0.61831 0.162473,1.25104 0.245463,1.40611 0.08299,0.15507 0.218967,0.88903 0.302307,1.63091 0.08334,0.74187 0.254673,1.76194 0.380339,2.26704 0.125666,0.5051 0.229177,1.16417 0.230477,1.464 0.0013,0.29983 0.135608,1.05744 0.298173,1.68362 0.162565,0.62615 0.340535,1.65479 0.395325,2.28616 0.05478,0.63138 0.193497,1.45827 0.308508,1.8371 0.115011,0.37883 0.288309,1.37696 0.384989,2.21847 0.09668,0.84151 0.237926,1.64595 0.313676,1.78749 0.07575,0.14155 0.211461,0.96811 0.301791,1.83709 0.09033,0.86899 0.258476,1.8559 0.37362,2.19263 0.115143,0.33674 0.252648,1.11388 0.305408,1.72703 0.05276,0.61316 0.188454,1.43953 0.30179,1.83658 0.113335,0.39705 0.281314,1.37638 0.373104,2.17609 0.09179,0.79974 0.270123,1.79234 0.396358,2.20555 0.126234,0.41325 0.230728,1.03278 0.232028,1.37718 0.0013,0.3444 0.104814,1.03951 0.230476,1.54461 0.125665,0.5051 0.296999,1.52569 0.380339,2.26756 0.08334,0.74188 0.21798,1.47293 0.299206,1.62471 0.08123,0.15177 0.220769,0.92201 0.310059,1.71204 0.08929,0.79002 0.260436,1.8154 0.380339,2.27841 0.119898,0.46301 0.28656,1.47641 0.37052,2.25206 0.08396,0.77565 0.218063,1.53325 0.298173,1.68362 0.08011,0.15037 0.195228,0.73866 0.255798,1.3069 0.135911,1.27515 15.41172,1.72421 15.60939,0.45888 0.0493,-0.31569 0.15837,-0.83157 0.24237,-1.1467 0.084,-0.31514 0.21503,-1.27958 0.29093,-2.14302 0.0759,-0.86344 0.24229,-2.25874 0.37001,-3.10058 0.12772,-0.84184 0.30746,-2.2755 0.39946,-3.18586 0.092,-0.91031 0.2279,-1.81511 0.3023,-2.01073 0.0744,-0.19561 0.20739,-1.24159 0.29559,-2.3244 0.0882,-1.0828 0.23056,-2.20872 0.31626,-2.50217 0.0857,-0.29345 0.22946,-1.45455 0.31936,-2.58021 0.0899,-1.12566 0.22656,-2.21317 0.30386,-2.41639 0.0773,-0.20321 0.21234,-1.14246 0.30024,-2.08773 0.0879,-0.94528 0.25644,-2.3388 0.37465,-3.09645 0.11822,-0.75766 0.29181,-2.16421 0.38551,-3.12539 0.0936,-0.96118 0.20481,-1.80332 0.24701,-1.87172 0.0422,-0.0684 0.17732,-0.79397 0.30024,-1.61282 0.35374,-2.35645 0.6967,-2.2324 0.89917,0.32556 0.0596,0.7528 0.16695,1.4786 0.23875,1.61282 0.0718,0.13422 0.21112,1.10261 0.30902,2.15181 0.0979,1.0492 0.27095,2.38986 0.38499,2.97915 0.11403,0.58925 0.25248,1.69129 0.30748,2.44894 0.055,0.75765 0.19605,1.85966 0.31316,2.44895 0.11711,0.58929 0.28642,1.92686 0.37672,2.97243 0.0903,1.04554 0.22576,2.01536 0.30076,2.15542 0.075,0.14005 0.21272,1.27627 0.30592,2.52491 0.0932,1.24864 0.22749,2.37969 0.29869,2.51303 0.0711,0.13333 0.24183,1.32819 0.3793,2.65565 0.13747,1.32745 0.30876,2.56888 0.38086,2.75849 0.0721,0.18958 0.18203,1.09333 0.24443,2.00866 0.30349,4.45257 -0.31415,4.146 8.34368,4.146 7.72511,0 7.72511,-3e-4 7.82691,-0.92294 0.056,-0.50746 0.21126,-1.3439 0.34468,-1.8588 0.13343,-0.5149 0.24281,-1.20143 0.2434,-1.52601 5.9e-4,-0.32459 0.13819,-1.16083 0.3054,-1.85828 0.1672,-0.69746 0.36831,-1.83386 0.44701,-2.52543 0.0787,-0.69158 0.21395,-1.44417 0.30075,-1.67225 0.0869,-0.22808 0.22484,-1.06746 0.30644,-1.865 0.0816,-0.79754 0.21783,-1.57963 0.30283,-1.7384 0.085,-0.15877 0.23481,-1.04144 0.33331,-1.96164 0.0985,-0.92017 0.24431,-1.79628 0.32401,-1.94665 0.0797,-0.15037 0.21332,-0.908 0.29662,-1.68361 0.0833,-0.77565 0.24462,-1.75466 0.35864,-2.17558 0.11403,-0.42092 0.28991,-1.45415 0.39119,-2.29599 0.10129,-0.84184 0.24614,-1.64698 0.32194,-1.78903 0.0758,-0.14205 0.20609,-0.86527 0.28939,-1.60714 0.0833,-0.74188 0.25468,-1.76195 0.38034,-2.26705 0.12567,-0.50511 0.22948,-1.18263 0.23048,-1.50533 0.001,-0.32271 0.1336,-1.1147 0.29404,-1.7601 0.16044,-0.6454 0.33767,-1.65557 0.39377,-2.24482 0.0561,-0.58928 0.19627,-1.39664 0.31109,-1.79369 0.11482,-0.39705 0.25158,-1.22343 0.30438,-1.83658 0.0528,-0.61316 0.19242,-1.3903 0.31005,-1.72703 0.11768,-0.33674 0.28498,-1.32191 0.37208,-2.18953 0.0871,-0.86761 0.22665,-1.7051 0.31005,-1.86087 0.0834,-0.15577 0.22448,-0.96141 0.31368,-1.79007 0.0892,-0.82865 0.25635,-1.81639 0.37155,-2.19522 0.1152,-0.37882 0.25249,-1.17085 0.30489,-1.76009 0.0524,-0.58929 0.20092,-1.49853 0.33022,-2.02055 0.48644,-1.96386 1.05343,-1.80039 -6.40013,-1.84589 -7.47004,-0.0456 -6.77328,-0.19011 -6.94324,1.43971 -0.0514,0.4929 -0.15552,1.10292 -0.23152,1.35547 -0.076,0.25255 -0.2091,1.64688 -0.2961,3.09904 -0.087,1.45216 -0.22074,2.80501 -0.29714,3.00602 -0.0764,0.20101 -0.21598,1.63022 -0.31058,3.17603 -0.0946,1.54581 -0.23566,3.01702 -0.31316,3.26957 -0.0775,0.25255 -0.24694,1.78495 -0.37672,3.40496 -0.12978,1.62002 -0.30072,3.10082 -0.37982,3.29075 -0.0791,0.18993 -0.21747,1.64453 -0.30747,3.23288 -0.09,1.58835 -0.22438,3.0009 -0.29818,3.13883 -0.0738,0.13793 -0.21195,1.51515 -0.30695,3.06028 -0.10763,1.75123 -0.25688,3.01148 -0.39688,3.34656 -0.12353,0.29563 -0.22479,0.65889 -0.22479,0.80667 0,1.74681 -0.58885,0.48015 -0.82424,-1.77302 -0.11506,-1.10143 -0.2801,-2.13531 -0.3669,-2.29753 -0.0868,-0.16221 -0.22851,-1.12105 -0.31471,-2.13062 -0.0862,-1.00957 -0.2302,-2.02984 -0.3204,-2.26705 -0.0902,-0.2372 -0.23437,-1.22908 -0.31987,-2.20451 -0.0855,-0.97543 -0.25127,-2.12465 -0.36897,-2.55334 -0.11769,-0.4287 -0.25845,-1.32652 -0.31265,-1.99522 -0.0542,-0.66869 -0.19286,-1.63264 -0.30799,-2.14251 -0.11513,-0.50988 -0.25467,-1.47833 -0.31057,-2.1518 -0.0559,-0.67347 -0.20074,-1.6197 -0.32143,-2.10272 -0.12068,-0.48303 -0.28764,-1.61943 -0.37104,-2.52543 -0.0834,-0.90597 -0.21812,-1.81939 -0.29972,-2.02985 -0.0816,-0.21046 -0.21619,-1.10613 -0.29869,-1.99006 -0.0825,-0.88389 -0.25059,-2.05471 -0.37414,-2.6019 -0.12354,-0.5472 -0.29495,-1.67976 -0.38085,-2.51716 -0.25648,-2.50037 0.31873,-2.29685 -6.62389,-2.34405 -7.09137,-0.0482 -6.6296,-0.21252 -6.7908,2.41226 -0.0543,0.88393 -0.19773,2.0153 -0.31884,2.51406 -0.1211,0.49876 -0.28577,1.70948 -0.36587,2.69027 -0.0801,0.98079 -0.24476,2.191 -0.36587,2.68976 -0.1211,0.49876 -0.26474,1.62471 -0.31884,2.50217 -0.0542,0.8775 -0.15626,1.70439 -0.22686,1.8371 -0.0706,0.1327 -0.20661,1.03332 -0.30231,2.00143 -0.0957,0.96811 -0.27264,2.24207 -0.39326,2.83135 -0.12062,0.58929 -0.29227,1.88867 -0.38137,2.88716 -0.0891,0.99854 -0.22241,1.92864 -0.29611,2.06654 -0.0737,0.13794 -0.21618,1.17584 -0.31677,2.30684 -0.10061,1.13101 -0.24416,2.21728 -0.31886,2.41381 -0.0747,0.19653 -0.21394,1.16532 -0.30954,2.15284 -0.16137,1.66633 -0.77665,4.85805 -0.97462,5.05602 -0.24137,0.24141 -0.39098,-0.39868 -0.5457,-2.33629 -0.0937,-1.17374 -0.23152,-2.24784 -0.30592,-2.38694 -0.0744,-0.1391 -0.20988,-1.44398 -0.30128,-2.89956 -0.0913,-1.45558 -0.23194,-2.76997 -0.31264,-2.92075 -0.0807,-0.15078 -0.21939,-1.32877 -0.30799,-2.61793 -0.0886,-1.28916 -0.22191,-2.58529 -0.29611,-2.87993 -0.0742,-0.29464 -0.21084,-1.36225 -0.30334,-2.37246 -0.0925,-1.0102 -0.26744,-2.52541 -0.38912,-3.36724 -0.12169,-0.84184 -0.29456,-2.44614 -0.38396,-3.56516 -0.0894,-1.11902 -0.22477,-2.19927 -0.30127,-2.40037 -0.0765,-0.20109 -0.21219,-1.47017 -0.30179,-2.8205 -0.0896,-1.35032 -0.22214,-2.61215 -0.29404,-2.80396 -0.0719,-0.19181 -0.18098,-0.83079 -0.24288,-1.42007 -0.14059,-1.3386 0.24266,-1.57828 -2.718179,-1.59525 z m -34.088358,10.0769 c 1.267454,-0.0566 3.515314,0.18695 4.234883,0.54364 5.067558,2.51202 3.744349,12.44365 -1.69602,12.72946 -0.68599,0.0361 -1.522587,0.0832 -1.859318,0.1049 -0.771006,0.0497 -1.322979,-0.0332 -1.568897,-0.23513 -0.313887,-0.2578 -0.274211,-12.71768 0.04134,-12.97957 0.111579,-0.0926 0.425524,-0.14443 0.848011,-0.1633 z m 102.470237,0.0114 c 1.21856,0.0466 2.55281,0.21012 3.17604,0.45941 4.61997,1.84796 3.96811,10.85482 -0.88522,12.22974 -1.72546,0.48881 -4.61245,0.39812 -4.80384,-0.15089 -0.26409,-0.75772 -0.23539,-11.92975 0.0315,-12.29486 0.1604,-0.21935 1.26297,-0.28995 2.4815,-0.2434 z m 35.65209,32.2585 c -3.02486,-0.009 -6.02315,0.0817 -6.09988,0.28164 -0.0511,0.13316 -0.093,2.81913 -0.093,5.96914 0,5.72724 6e-5,5.7273 6.35206,5.7273 6.35204,0 6.35207,-1e-4 6.35207,-5.68958 0,-5.07929 -0.0271,-5.71925 -0.25321,-5.96914 -0.18167,-0.20074 -3.23316,-0.31011 -6.25802,-0.31936 z m -90.61256,15.26315 c 0.0657,0.0308 0.13193,0.0608 0.19792,0.0909 -0.0124,-0.006 -0.0244,-0.0132 -0.0367,-0.0196 -0.0521,-0.0272 -0.21443,-0.0963 -0.16123,-0.0713 z" /><path
       id="path8-4"
       clip-path="url(#clipPath12)"
       style="fill:#000000"
       d="m 40.901896,83.244531 c -0.459394,0 -0.544033,0.05771 -0.614433,0.420646 -0.0449,0.231505 -0.188192,0.73119 -0.318326,1.11001 -0.130142,0.378826 -0.326807,1.049113 -0.436666,1.489832 -0.109859,0.440713 -0.271402,0.888813 -0.359152,0.995288 -0.08775,0.106474 -0.229646,0.572069 -0.315226,1.035079 -0.08558,0.463003 -0.263705,1.048668 -0.395841,1.301212 -0.132137,0.252551 -0.240294,0.576493 -0.240812,0.719853 -0.0019,0.533205 -0.349621,1.040247 -0.713135,1.040247 -0.356561,0 -1.961039,-1.96711 -3.303674,-4.050399 -0.106444,-0.165162 -0.62417,-0.843358 -1.150318,-1.507402 -0.52614,-0.664037 -0.956531,-1.262248 -0.956531,-1.329118 0,-0.06687 -0.206342,-0.342525 -0.458886,-0.612882 -0.535427,-0.57317 -0.678203,0.0984 -0.242363,1.141532 0.119466,0.285923 0.265932,0.921212 0.325562,1.411284 0.05963,0.490065 0.195949,1.063277 0.302824,1.273824 0.106875,0.210547 0.245451,0.795681 0.307991,1.300696 0.06254,0.505007 0.211333,1.193921 0.330213,1.530656 0.118874,0.336727 0.284149,1.151632 0.367419,1.810742 0.08327,0.659104 0.230549,1.325603 0.327629,1.481046 0.133573,0.213872 0.133359,0.378294 -0.0026,0.676445 -0.307299,0.674441 -0.493232,0.607858 -3.783232,-1.361157 -0.336735,-0.20153 -0.818708,-0.472376 -1.071252,-0.601514 -0.252551,-0.129139 -0.735035,-0.409816 -1.07177,-0.623735 -0.336727,-0.213912 -0.85309,-0.499387 -1.147733,-0.634586 -0.294643,-0.1352 -0.570276,-0.299576 -0.612366,-0.364836 -0.04209,-0.06526 -0.317724,-0.229595 -0.612366,-0.365352 -0.294636,-0.135757 -0.913249,-0.453376 -1.374593,-0.7059 -0.97986,-0.536363 -0.92139,-0.521676 -0.92139,-0.229444 0,0.126276 0.103685,0.229444 0.22996,0.229444 0.126276,0 0.229443,0.07366 0.229443,0.163814 0,0.161983 1.346959,1.725212 2.831869,3.286621 0.420912,0.442605 1.28169,1.367391 1.913061,2.055172 0.63137,0.687775 1.423371,1.541155 1.760099,1.896525 1.32495,1.398268 1.323873,1.396216 1.157036,1.83503 -0.164466,0.432579 -0.687878,0.544686 -1.218014,0.260966 -0.148771,-0.07962 -0.953677,-0.216821 -1.788521,-0.304891 -0.834845,-0.08807 -1.855867,-0.263718 -2.269112,-0.390674 -0.413252,-0.126955 -1.033293,-0.231437 -1.377694,-0.232027 -0.344401,-5.9e-4 -1.198751,-0.138663 -1.898592,-0.306441 -1.667343,-0.399723 -3.398195,-0.320972 -2.056722,0.09353 0.147322,0.04552 0.371369,0.144825 0.497644,0.220658 0.484869,0.291226 2.44668,1.217497 2.578654,1.217497 0.07627,0 0.218843,0.09696 0.316776,0.214974 0.09794,0.118016 0.359436,0.259634 0.580844,0.315234 0.221402,0.0556 0.572387,0.23482 0.779797,0.3979 0.20741,0.16315 0.53605,0.29663 0.730188,0.29663 0.194138,0 0.394194,0.0672 0.444934,0.14934 0.09953,0.16105 2.275875,1.22835 2.504757,1.22835 0.07627,0 0.218836,0.0964 0.316776,0.21446 0.09794,0.11801 0.359442,0.26014 0.580843,0.31574 0.221408,0.0556 0.572388,0.23424 0.779798,0.39739 0.207403,0.16315 0.511662,0.29663 0.676444,0.29663 0.164782,0 0.478899,0.14121 0.698149,0.31367 0.790821,0.62207 1.455528,0.37398 1.65933,-0.6196 1.182951,-5.767116 8.829604,-5.845164 11.236523,-0.11472 0.09724,0.23151 0.264062,0.42065 0.37052,0.42065 0.255214,0 1.031451,-0.6155 2.508891,-1.98955 0.999306,-0.92938 1.733636,-1.57749 3.007052,-2.654619 1.700923,-1.438744 1.808919,-1.942222 0.32091,-1.492415 -0.599326,0.181163 -3.137069,0.622091 -3.896403,0.676961 -0.9171,0.06627 -0.174102,-2.771278 1.155486,-4.412651 0.753753,-0.930505 3.177181,-6.442616 2.562117,-5.827551 -0.132289,0.132288 -0.310785,0.240812 -0.396875,0.240812 -0.08609,0 -0.546022,0.297104 -1.02216,0.660425 -0.476131,0.36332 -1.623702,1.238407 -2.549715,1.944584 -0.926014,0.706184 -2.052235,1.58346 -2.503206,1.949752 -0.998835,0.811264 -1.427781,0.821683 -1.580266,0.03721 -0.318227,-1.637221 -0.447487,-2.634563 -0.663008,-5.109766 -0.131067,-1.505264 -0.299834,-2.851236 -0.374654,-2.991031 -0.07482,-0.139801 -0.130307,-0.354197 -0.123507,-0.476974 0.03678,-0.660938 -0.03648,-0.759127 -0.568441,-0.759127 z M 55.15684,96.866439 c -0.454285,-0.03214 -1.071348,0.275285 -1.584916,0.941028 -0.654374,0.848252 -2.365666,2.921683 -2.717147,3.292303 -0.172113,0.18149 -0.39562,0.43354 -0.49661,0.55966 -7.157159,8.93756 -7.086906,8.88321 -7.086906,5.4622 0,-3.03038 -0.624365,-4.76406 -2.091862,-5.80792 -1.440074,-1.02435 -5.494714,-0.10259 -5.555734,1.26297 -0.003,0.0678 -0.148147,0.43644 -0.322461,0.81908 -0.508958,1.11718 -0.341571,2.95865 0.555005,6.11228 0.27382,0.96315 0.273791,0.98134 -0.0083,0.98134 -0.126276,0 -0.229443,-0.0688 -0.229443,-0.15296 0,-0.0842 -0.08649,-0.15455 -0.19172,-0.15555 -0.105229,-0.001 -0.535613,-0.24322 -0.956531,-0.53795 -0.420912,-0.29473 -1.419764,-0.98079 -2.219502,-1.52445 -4.293222,-2.91889 -5.079214,-3.45891 -5.248259,-3.60134 -0.101735,-0.0857 -0.701874,-0.50345 -1.333252,-0.92862 -0.63137,-0.42517 -1.388975,-0.93876 -1.683618,-1.14102 -0.294643,-0.20227 -0.845388,-0.57812 -1.224215,-0.8356 -0.378819,-0.25748 -0.930088,-0.63377 -1.224731,-0.83613 -0.294642,-0.20237 -1.017859,-0.69172 -1.607137,-1.087271 -0.589286,-0.395551 -1.209326,-0.840912 -1.377694,-0.990121 -0.539544,-0.478149 -1.405243,-0.62559 -2.002978,-0.340547 -0.944115,0.450213 -0.778796,0.702015 1.854667,2.827219 1.580877,1.27577 1.816098,1.47088 2.229838,1.84691 0.164683,0.14967 0.624637,0.51969 1.02216,0.82218 0.397516,0.30249 0.757344,0.59607 0.799434,0.65267 0.118942,0.15994 2.715083,2.3447 3.241146,2.72748 0.258323,0.18797 0.926213,0.75378 1.484147,1.25781 0.55794,0.50403 1.315765,1.17685 1.684135,1.49499 0.36837,0.31821 0.939391,0.834 1.268656,1.14619 0.329272,0.31218 0.806283,0.71549 1.059884,0.89607 0.369949,0.26342 1.366316,1.38521 2.099097,2.36316 0.534221,0.71297 1.514581,3.30149 1.71049,4.51549 0.0883,0.54719 0.226961,1.2704 0.307991,1.60713 0.19531,0.81189 0.196287,6.94916 0.0016,7.51531 -0.08408,0.24406 -0.251306,0.96026 -0.37207,1.59163 -0.284337,1.48659 -0.671581,2.96179 -1.00459,3.82664 -0.284713,0.73945 -0.479986,1.27872 -0.939994,2.59778 -0.16065,0.46065 -0.35951,0.90472 -0.441833,0.98702 -0.08233,0.0823 -0.149862,0.25571 -0.149862,0.38499 0,0.12927 -0.178871,0.61478 -0.397909,1.079 -0.219031,0.46422 -0.522002,1.1195 -0.673344,1.45624 -0.585693,1.30318 -4.016094,8.16662 -4.5899,9.18342 -0.332554,0.58929 -0.780456,1.42588 -0.995288,1.8588 -0.214838,0.43292 -0.544923,1.01806 -0.733289,1.3007 -0.188365,0.28264 -0.43151,0.68612 -0.540019,0.89658 -0.108509,0.21046 -0.348471,0.63333 -0.533817,0.93948 -0.185346,0.30615 -0.633286,1.06375 -0.995288,1.68362 -0.362009,0.61988 -0.963913,1.60903 -1.337386,2.19831 -0.373481,0.58929 -0.779225,1.28381 -0.901754,1.54306 -0.122529,0.25925 -0.322851,0.55447 -0.444934,0.65578 -0.819324,0.67999 -0.639976,1.39156 0.392741,1.55959 0.359446,0.0585 0.781844,0.11508 0.938444,0.12558 0.240892,0.0162 0.827067,-0.51006 1.85415,-1.6645 0.349957,-0.39335 4.102036,-5.1509 4.795573,-6.08077 0.362397,-0.48588 0.947532,-1.26749 1.300696,-1.73684 0.984612,-1.30857 1.666751,-2.27186 2.354895,-3.32642 0.236666,-0.36267 0.688384,-0.99773 1.004073,-1.41128 0.315689,-0.41355 0.573986,-0.80566 0.574125,-0.87126 1.39e-4,-0.0656 0.275224,-0.49818 0.610816,-0.96119 0.335586,-0.46294 0.676733,-0.99286 0.758093,-1.1777 0.08136,-0.18484 0.376424,-0.66732 0.655774,-1.07177 0.279343,-0.40445 0.593695,-0.9073 0.698665,-1.11776 0.104969,-0.21046 0.358589,-0.65804 0.56379,-0.99477 0.205201,-0.33674 0.511977,-0.888 0.681612,-1.22473 0.169636,-0.33674 0.551564,-1.05278 0.848527,-1.59112 0.296964,-0.53834 0.540019,-1.09798 0.540019,-1.24385 0,-0.14587 0.09876,-0.34721 0.219625,-0.44752 0.120864,-0.10031 0.266107,-0.40143 0.322977,-0.66921 0.05687,-0.26778 0.193986,-0.59047 0.304375,-0.71675 0.190884,-0.21836 0.337491,-0.56554 0.904854,-2.14251 0.136295,-0.37882 0.341975,-0.8957 0.45682,-1.14825 0.410094,-0.90184 1.005623,-2.5353 1.005623,-2.75849 0,-0.12492 0.137564,-0.48426 0.305924,-0.7984 0.168367,-0.31413 0.305925,-0.69939 0.305925,-0.85628 0,-0.15689 0.103112,-0.50212 0.228926,-0.76739 0.125822,-0.26528 0.359874,-0.93023 0.519865,-1.47743 0.159999,-0.54719 0.440067,-1.47726 0.622701,-2.06654 0.182641,-0.58929 0.430501,-1.45806 0.550354,-1.93063 0.119853,-0.47256 0.321307,-1.0577 0.448035,-1.3007 0.126728,-0.243 0.230992,-0.59453 0.23151,-0.78083 5.19e-4,-0.18629 0.128855,-0.66827 0.285254,-1.07125 0.156406,-0.40299 0.330597,-1.03278 0.387057,-1.3994 0.05646,-0.36662 0.202034,-0.85859 0.323494,-1.09347 0.12146,-0.23487 0.266768,-0.72686 0.322978,-1.09348 0.05621,-0.36662 0.186634,-0.83908 0.289905,-1.04954 0.103271,-0.21046 0.274868,-0.76121 0.381372,-1.22422 0.106505,-0.46301 0.253662,-0.91811 0.327112,-1.01131 0.07345,-0.0932 0.196391,-0.47195 0.272851,-0.84181 0.213384,-1.03218 1.68437,-4.15908 2.32699,-4.94595 0.07429,-0.091 0.517974,-0.7408 0.985986,-1.44435 0.468019,-0.70355 0.916185,-1.35798 0.995805,-1.45418 0.07962,-0.0962 0.622868,-0.79471 1.207162,-1.55236 0.584286,-0.75766 1.343026,-1.736684 1.685685,-2.175576 0.342659,-0.438886 0.663031,-0.99903 0.712101,-1.244368 0.138456,-0.692273 -0.152913,-1.06392 -0.607198,-1.096057 z M 43.937887,131.53719 c -0.354416,-0.23511 -1.119351,0.61582 -1.130681,1.25781 -0.0026,0.14906 -0.174315,0.61519 -0.381372,1.03611 -0.207057,0.42092 -0.376985,0.8774 -0.377755,1.01441 -7.7e-4,0.13701 -0.100311,0.33119 -0.221175,0.43149 -0.120864,0.10031 -0.265881,0.40143 -0.322461,0.66921 -0.05658,0.26778 -0.233455,0.7018 -0.392741,0.96429 -0.308743,0.50879 -0.387341,1.35714 -0.140043,1.50998 0.128389,0.0794 0.466359,0.57923 1.346171,1.99213 0.104843,0.16837 0.265295,0.47845 0.357085,0.68884 0.09179,0.21046 0.290097,0.65856 0.440283,0.99529 1.463233,3.28077 1.697574,8.96837 0.522448,12.6752 -0.659,2.07876 -1.330387,3.85111 -1.992643,5.25911 -0.610828,1.29867 -0.621271,1.39325 -0.172082,1.58285 0.952075,0.40187 1.857539,-0.10571 2.564184,-1.43764 0.139373,-0.2627 0.441584,-0.8219 0.671794,-1.24282 0.23021,-0.42092 0.623884,-1.24782 0.874882,-1.8371 0.250997,-0.58929 0.556587,-1.25398 0.679028,-1.47743 0.12244,-0.22338 0.222726,-0.50152 0.222726,-0.61805 0,-0.11653 0.137276,-0.48106 0.304891,-0.80976 0.167608,-0.32876 0.348986,-0.84269 0.403076,-1.14205 0.05409,-0.29937 0.18692,-0.71976 0.295072,-0.9338 0.108152,-0.21403 0.276181,-0.83355 0.373621,-1.37717 0.09744,-0.54362 0.272225,-1.29859 0.38809,-1.67742 0.608417,-1.98928 0.587069,-8.26389 -0.03307,-9.79475 -0.119074,-0.29393 -0.282959,-0.83119 -0.364319,-1.19424 -0.38873,-1.73459 -2.835147,-5.81814 -3.915006,-6.53449 z"
       transform="matrix(0.88749968,0,0,0.88749968,-9.0320844,94.927452)" /><path
       style="fill:#481748;fill-opacity:1;stroke-width:0.269765"
       d="m 73.780778,707.55404 c -0.296742,-0.16136 -0.964411,-0.5732 -1.483709,-0.91519 -0.519298,-0.34199 -1.490453,-0.7628 -2.158121,-0.93512 -0.667669,-0.17233 -1.7654,-0.66376 -2.439403,-1.09208 -0.674003,-0.42832 -1.747269,-0.96286 -2.385035,-1.18788 -0.637762,-0.22501 -1.509606,-0.70366 -1.937426,-1.06364 -0.427821,-0.35999 -1.236167,-0.80333 -1.796329,-0.9852 -1.188488,-0.38587 -6.642909,-3.07311 -7.627718,-3.75796 -0.370928,-0.25795 -1.159759,-0.55766 -1.752959,-0.66603 -0.593199,-0.10836 -1.746446,-0.60775 -2.562769,-1.10973 -0.816323,-0.50198 -1.909104,-1.05387 -2.428402,-1.22642 -0.519298,-0.17254 -1.308361,-0.58305 -1.753474,-0.91223 -0.445112,-0.32918 -1.668922,-0.97548 -2.719576,-1.43623 -2.50377,-1.09798 -10.10599,-4.82288 -10.326813,-5.05987 -0.390973,-0.4196 5.988221,0.1588 8.951076,0.8116 1.753591,0.38636 4.12078,0.77516 5.260421,0.86401 1.139641,0.0888 3.650201,0.50372 5.579022,0.92197 1.928821,0.41824 5.085074,0.95735 7.013895,1.19802 1.928821,0.24066 4.235313,0.6234 5.125538,0.85053 3.564221,0.90935 4.548996,0.73357 5.240291,-0.93536 0.273486,-0.66025 0.261149,-0.94027 -0.0696,-1.57988 -0.221102,-0.42757 -4.864284,-5.56894 -10.318183,-11.42528 -10.13235,-10.88001 -14.80389,-16.127 -15.285993,-17.16895 -0.149182,-0.32242 -0.559495,-0.65857 -0.911806,-0.74699 -0.404563,-0.10154 -0.640566,-0.35766 -0.640566,-0.69516 0,-0.29392 0.05031,-0.53439 0.11179,-0.53439 0.280398,0 8.745298,4.47919 9.464874,5.00833 0.445112,0.32731 1.35557,0.86469 2.023239,1.19419 1.295035,0.63909 5.820515,3.22768 13.506802,7.72592 5.282138,3.09126 7.919513,4.41506 8.796687,4.41538 0.685465,2.4e-4 1.598024,-1.05395 1.83115,-2.11536 0.09328,-0.4247 -0.01498,-1.16698 -0.253418,-1.73766 -0.228941,-0.54793 -0.723944,-2.78823 -1.100005,-4.97843 -0.376061,-2.1902 -0.975349,-5.07474 -1.331752,-6.41007 -0.356403,-1.33534 -0.837753,-3.55669 -1.069668,-4.93634 -0.231914,-1.37965 -0.66659,-3.20057 -0.965945,-4.04648 -0.299356,-0.84591 -0.725051,-2.65193 -0.945991,-4.01336 -0.220941,-1.36143 -0.764067,-3.65251 -1.206946,-5.09127 -0.817313,-2.65518 -0.997689,-4.0174 -0.567181,-4.28347 0.405227,-0.25044 1.669094,0.94287 2.669469,2.52045 0.525395,0.82854 2.309336,3.26665 3.964313,5.41803 1.65498,2.15138 3.960058,5.30763 5.122398,7.01389 4.383107,6.43421 8.178107,10.79061 9.400041,10.79061 0.887838,0 2.004814,-1.3301 2.215436,-2.63815 0.08888,-0.55202 0.412128,-1.67135 0.718317,-2.48739 0.306186,-0.81604 0.944682,-2.94044 1.418878,-4.72089 0.474199,-1.78045 1.054059,-3.60212 1.288585,-4.04817 0.234526,-0.44604 0.80915,-2.14556 1.276944,-3.77671 0.467795,-1.63115 1.078028,-3.69409 1.356074,-4.58432 0.27805,-0.89022 0.69994,-2.31661 0.93755,-3.16974 l 0.43201,-1.55115 h 1.44314 c 0.8274,0 1.56096,0.14388 1.71927,0.33721 0.15188,0.18546 0.336,1.00487 0.40916,1.82091 0.0732,0.81604 0.26185,2.05109 0.41932,2.74455 0.28862,1.271 0.7394,5.25442 1.52108,13.44137 0.4919,5.15192 1.64067,12.41878 2.15949,13.66049 0.44179,1.05736 1.1744,1.3147 2.34242,0.82282 0.4931,-0.20765 3.38512,-2.31335 6.42672,-4.67933 10.19181,-7.92792 15.8834,-12.13717 17.00958,-12.57954 l 1.11749,-0.43897 -0.17781,0.73053 c -0.82029,3.36998 -6.86558,16.10514 -9.05455,19.07455 -3.71955,5.04568 -5.98074,12.7399 -4.13965,14.08613 0.3324,0.24306 0.89191,0.3076 1.71341,0.19765 3.11038,-0.4163 9.57749,-1.58583 12.08082,-2.18473 1.52243,-0.36423 2.88812,-0.58803 3.03487,-0.49733 0.88757,0.54855 -0.57469,2.22984 -6.07267,6.98223 -2.07719,1.79551 -5.29414,4.64952 -7.14876,6.34225 -6.72468,6.13763 -8.82068,7.77305 -9.58582,7.47944 -0.23494,-0.0901 -0.773,-0.92371 -1.19569,-1.85234 -2.27265,-4.99291 -6.14547,-9.12355 -10.79971,-11.51868 -5.145597,-2.64798 -11.804621,-2.87113 -16.860328,-0.56501 -4.863006,2.21823 -8.076632,6.26605 -9.742702,12.27171 -0.566418,2.04176 -0.886259,2.7312 -1.510884,3.25678 -0.839739,0.7066 -1.884094,0.84096 -2.774203,0.35693 z"
       id="path27"
       transform="scale(0.26458333)" /><path
       style="fill:#481748;fill-opacity:1;stroke-width:1.23336"
       d="m 553.46426,902.00941 -3.39889,-0.58666 0.31549,-101.36145 0.31549,-101.36146 34.53415,-0.35878 c 45.63264,-0.4741 68.79341,1.05518 77.69409,5.13004 19.06656,8.72896 27.85992,27.20812 26.19419,55.04683 -1.16816,19.52288 -8.52111,32.40028 -21.84002,38.24899 -4.39296,1.92906 -8.1687,4.05189 -8.39053,4.71738 -0.22183,0.66549 1.42986,1.60489 3.67043,2.08755 11.19008,2.41057 18.61508,9.22576 22.0976,20.28271 2.10408,6.68044 2.69,12.97484 3.44716,37.03245 0.93331,29.65449 1.3552,32.10795 6.49297,37.76005 l 2.37178,2.60921 -23.80142,0.76472 c -13.09077,0.42061 -25.99991,0.35056 -28.68698,-0.15562 -4.26835,-0.80408 -5.02278,-1.46406 -5.97157,-5.22398 -0.59729,-2.367 -1.50187,-17.06894 -2.01018,-32.67097 -1.30597,-40.08584 -2.65865,-42.80348 -21.70165,-43.60034 -10.01671,-0.41916 -10.35806,-0.34219 -10.93881,2.46672 -0.3297,1.59466 -0.8601,17.60723 -1.17866,35.58349 -0.32309,18.23183 -1.14861,34.15534 -1.86692,36.01134 -2.52741,6.53042 -6.12461,7.62804 -25.91929,7.90876 -9.91624,0.14062 -19.55903,-0.008 -21.42843,-0.33098 z m 71.65131,-119.3379 c 13.59126,-7.02832 16.54788,-30.29564 5.28137,-41.56215 -3.73963,-3.73963 -5.7457,-4.69715 -11.29008,-5.38886 -3.70831,-0.46265 -8.68493,-0.65636 -11.05916,-0.43048 l -4.31677,0.4107 -0.33411,24.26975 -0.33412,24.26975 2.80084,0.60361 c 4.43531,0.95586 15.64981,-0.30954 19.25203,-2.17232 z"
       id="path28"
       transform="scale(0.26458333)" /><path
       style="fill:#481748;fill-opacity:1;stroke-width:1.23336"
       d="m 357.13558,901.45304 c -4.02767,-0.58711 -7.74712,-1.49156 -8.26545,-2.0099 -1.04825,-1.04824 -1.50635,-3.54838 -12.82732,-70.00687 -4.39107,-25.77728 -11.05932,-64.35069 -14.81832,-85.71869 -3.75901,-21.36801 -6.94688,-39.94582 -7.08415,-41.28403 -0.35343,-3.44538 3.53785,-4.03306 27.83993,-4.20446 23.76812,-0.16764 22.15347,-1.04756 23.64326,12.88463 0.4305,4.02596 1.30283,11.76003 1.9385,17.18682 1.14058,9.73724 4.90759,43.18034 7.4325,65.9849 4.02695,36.37067 4.66636,40.70096 6.0099,40.70096 1.38643,0 3.04787,-9.30774 7.48527,-41.93433 2.07584,-15.26286 4.32406,-31.63574 4.99605,-36.38419 0.67199,-4.74844 2.32331,-17.23624 3.66961,-27.75065 1.34629,-10.51442 2.76041,-21.47381 3.14249,-24.35421 0.54749,-4.12739 1.29148,-5.38686 3.51118,-5.94397 3.70471,-0.92982 43.47241,-0.1504 44.49051,0.87199 0.6971,0.70004 3.10151,15.69283 6.79595,42.37649 0.65743,4.74845 2.28798,15.84871 3.62344,24.66725 1.33546,8.81854 3.30366,22.13886 4.37379,29.6007 3.45044,24.0595 5.74844,36.97669 6.76487,38.02563 1.45136,1.49778 3.38796,-8.74549 4.97395,-26.30869 0.7657,-8.47936 2.43987,-25.12976 3.72035,-37.00087 1.28049,-11.87111 3.23876,-31.01907 4.35171,-42.55101 1.11295,-11.53193 2.4157,-22.9097 2.89501,-25.28393 l 0.87146,-4.31677 23.37961,-0.30427 c 12.85878,-0.16736 24.00028,0.11015 24.75889,0.61668 1.00768,0.67282 0.90812,3.5794 -0.36951,10.78786 -0.96185,5.42679 -3.35977,19.30212 -5.32874,30.83406 -1.96895,11.53194 -5.52349,32.34493 -7.89897,46.25109 -2.37548,13.90616 -6.55679,38.46436 -9.29181,54.57378 -7.59849,44.75559 -9.9879,57.97364 -10.68326,59.09875 -0.91376,1.47849 -53.1971,1.29284 -55.98421,-0.19879 -1.66511,-0.89114 -2.50258,-3.17961 -3.04659,-8.3252 -0.70709,-6.68808 -4.14468,-34.05759 -6.85528,-54.58068 -0.67194,-5.08762 -2.32961,-17.85292 -3.68369,-28.36733 -4.13443,-32.10379 -5.29812,-39.5538 -6.27234,-40.1559 -1.31362,-0.81186 -3.244,9.29225 -6.02479,31.53521 -1.31361,10.50735 -3.5467,27.98448 -4.96241,38.83807 -1.41571,10.85359 -3.66183,28.32365 -4.99137,38.82235 -1.32954,10.4987 -2.70872,20.00658 -3.06484,21.12863 -0.35613,1.12204 -2.36549,2.38368 -4.46526,2.80364 -5.40972,1.08194 -36.01661,0.66833 -44.74992,-0.60475 z"
       id="path29"
       transform="scale(0.26458333)" /><path
       style="fill:#481748;fill-opacity:1;stroke-width:1.23336"
       d="m 172.36241,901.93794 -3.39175,-0.51381 0.13805,-89.6452 c 0.0759,-49.30486 0.49219,-94.91782 0.92502,-101.36214 l 0.78697,-11.71695 37.61756,-0.34689 c 46.91871,-0.43266 58.70202,0.58216 69.71566,6.00416 5.17586,2.54806 10.25668,6.34807 14.07769,10.52886 11.04142,12.08107 14.87565,23.91183 14.87565,45.89973 0,22.60153 -4.28496,35.54885 -15.33656,46.34046 -11.78903,11.51172 -27.56571,16.6445 -51.3822,16.71665 -20.29135,0.0615 -18.83182,-2.7943 -19.60811,38.36596 -0.5958,31.59061 -0.7469,33.27061 -3.21407,35.73532 -1.42388,1.42247 -4.75396,3.08852 -7.40017,3.70236 -4.72585,1.09622 -31.14673,1.29994 -37.80374,0.29149 z m 70.86178,-118.31792 c 5.98243,-3.42171 10.84848,-13.69171 10.84848,-22.89614 0,-13.35242 -5.92293,-22.12275 -16.52791,-24.47354 -3.45911,-0.76678 -8.23184,-1.20412 -10.60606,-0.97188 l -4.31677,0.42226 -1.00884,11.10026 c -1.0697,11.76989 -0.37466,36.61238 1.09067,38.98333 1.30928,2.11846 15.68313,0.60245 20.52043,-2.16429 z"
       id="path30"
       transform="scale(0.26458333)" /><path
       style="fill:#481748;fill-opacity:1;stroke-width:1.23336"
       d="m 729.67865,841.38741 c -0.5774,-0.93426 -1.68839,-13.89037 -4.51492,-52.6521 -2.39751,-32.87851 -2.72532,-44.98305 -1.82944,-67.55276 l 0.91899,-23.15171 23.60748,0.3345 23.60747,0.3345 0.36349,35.15084 c 0.24112,23.31707 -0.27692,43.66282 -1.53878,60.43476 -1.04625,13.90616 -2.2302,29.72403 -2.631,35.15083 -0.4008,5.42679 -1.30259,10.56066 -2.00398,11.4086 -1.4548,1.75875 -34.91581,2.26333 -35.97931,0.54254 z"
       id="path31"
       transform="scale(0.26458333)" /><path
       style="fill:#481748;fill-opacity:1;stroke-width:1.23336"
       d="m 733.33474,901.68658 c -7.63009,-1.59645 -8.1176,-3.06254 -8.1176,-24.41212 v -18.9086 l 23.12554,0.33555 23.12555,0.33556 0.36728,16.03371 c 0.43929,19.1774 -0.20414,23.54643 -3.74691,25.44246 -3.23956,1.73377 -28.06899,2.57211 -34.75386,1.17344 z"
       id="path32"
       transform="scale(0.26458333)" /></g></svg>
